%TF.GenerationSoftware,KiCad,Pcbnew,8.0.9-8.0.9-0~ubuntu22.04.1*%
%TF.CreationDate,2026-09-23T08:24:23+00:00*%
%TF.ProjectId,Cyclometer_v1,4379636c-6f6d-4657-9465-725f76312e6b,rev?*%
%TF.SameCoordinates,Original*%
%TF.FileFunction,Other,User*%
%FSLAX46Y46*%
G04 Gerber Fmt 4.6, Leading zero omitted, Abs format (unit mm)*
G04 Created by KiCad (PCBNEW 8.0.9-8.0.9-0~ubuntu22.04.1) date 2026-09-23 08:24:23*
%MOMM*%
%LPD*%
G01*
G04 APERTURE LIST*
%ADD10C,0.050000*%
G04 APERTURE END LIST*
D10*
%TO.C,TP2*%
X116500000Y-126000000D02*
G75*
G02*
X112500000Y-126000000I-2000000J0D01*
G01*
X112500000Y-126000000D02*
G75*
G02*
X116500000Y-126000000I2000000J0D01*
G01*
%TO.C,J7*%
X131980000Y-67200000D02*
X108080000Y-67200000D01*
X108080000Y-67200000D02*
X108080000Y-70750000D01*
X131980000Y-70750000D02*
X131980000Y-67200000D01*
X108080000Y-70750000D02*
X131980000Y-70750000D01*
%TO.C,J1*%
X150825000Y-74730000D02*
X163175000Y-74730000D01*
X150825000Y-83380000D02*
X150825000Y-74730000D01*
X163175000Y-74730000D02*
X163175000Y-83380000D01*
X163175000Y-83380000D02*
X150825000Y-83380000D01*
%TO.C,TP1*%
X123500000Y-126000000D02*
G75*
G02*
X119500000Y-126000000I-2000000J0D01*
G01*
X119500000Y-126000000D02*
G75*
G02*
X123500000Y-126000000I2000000J0D01*
G01*
%TO.C,J2*%
X156400000Y-129760000D02*
X156400000Y-118560000D01*
X156400000Y-118560000D02*
X152850000Y-118560000D01*
X152850000Y-129760000D02*
X156400000Y-129760000D01*
X152850000Y-118560000D02*
X152850000Y-129760000D01*
%TO.C,R3*%
X147550000Y-55050000D02*
X145650000Y-55050000D01*
X145650000Y-55050000D02*
X145650000Y-58750000D01*
X147550000Y-58750000D02*
X147550000Y-55050000D01*
X145650000Y-58750000D02*
X147550000Y-58750000D01*
%TO.C,J3*%
X150200000Y-136390000D02*
X165100000Y-136390000D01*
X150200000Y-145040000D02*
X150200000Y-136390000D01*
X165100000Y-136390000D02*
X165100000Y-145040000D01*
X165100000Y-145040000D02*
X150200000Y-145040000D01*
%TO.C,RST1*%
X99750000Y-70750000D02*
X99750000Y-70500000D01*
X100000000Y-70750000D02*
X99750000Y-70750000D01*
X100000000Y-70750000D02*
X107000000Y-70750000D01*
X107000000Y-70750000D02*
X107250000Y-70750000D01*
X107250000Y-70750000D02*
X107250000Y-70500000D01*
X107250000Y-70500000D02*
X107250000Y-61500000D01*
X99750000Y-61500000D02*
X99750000Y-70500000D01*
X99750000Y-61500000D02*
X99750000Y-61250000D01*
X107250000Y-61500000D02*
X107250000Y-61250000D01*
X99750000Y-61250000D02*
X100000000Y-61250000D01*
X107000000Y-61250000D02*
X100000000Y-61250000D01*
X107250000Y-61250000D02*
X107000000Y-61250000D01*
%TO.C,R7*%
X147550000Y-64550000D02*
X145650000Y-64550000D01*
X145650000Y-64550000D02*
X145650000Y-68250000D01*
X147550000Y-68250000D02*
X147550000Y-64550000D01*
X145650000Y-68250000D02*
X147550000Y-68250000D01*
%TO.C,J9*%
X150700000Y-84700000D02*
X163050000Y-84700000D01*
X150700000Y-101000000D02*
X150700000Y-84700000D01*
X163050000Y-84700000D02*
X163050000Y-101000000D01*
X163050000Y-101000000D02*
X150700000Y-101000000D01*
%TO.C,TP3*%
X134900000Y-76100000D02*
G75*
G02*
X130900000Y-76100000I-2000000J0D01*
G01*
X130900000Y-76100000D02*
G75*
G02*
X134900000Y-76100000I2000000J0D01*
G01*
%TO.C,TP4*%
X141500000Y-76100000D02*
G75*
G02*
X137500000Y-76100000I-2000000J0D01*
G01*
X137500000Y-76100000D02*
G75*
G02*
X141500000Y-76100000I2000000J0D01*
G01*
%TD*%
M02*
