M48
; DRILL file {KiCad 8.0.9-8.0.9-0~ubuntu22.04.1} date 2026-09-23T08:24:23+0000
; FORMAT={-:-/ absolute / metric / decimal}
; #@! TF.CreationDate,2026-09-23T08:24:23+00:00
; #@! TF.GenerationSoftware,Kicad,Pcbnew,8.0.9-8.0.9-0~ubuntu22.04.1
; #@! TF.FileFunction,MixedPlating,1,2
FMAT,2
METRIC
; #@! TA.AperFunction,Plated,PTH,ViaDrill
T1C0.400
; #@! TA.AperFunction,Plated,PTH,ComponentDrill
T2C0.600
; #@! TA.AperFunction,Plated,PTH,ComponentDrill
T3C1.000
; #@! TA.AperFunction,Plated,PTH,ComponentDrill
T4C1.100
; #@! TA.AperFunction,NonPlated,NPTH,ComponentDrill
T5C0.650
%
G90
G05
T1
X104.875Y-142.4
X106.85Y-100.7
X107.625Y-80.75
X108.5Y-75.925
X109.7Y-101.2
X110.95Y-89.55
X112.15Y-117.4
X112.5Y-98.6
X114.0Y-113.9
X116.1Y-88.3
X116.4Y-112.6
X119.3Y-128.6
X119.5Y-89.75
X119.7Y-130.9
X120.2Y-99.75
X120.8Y-58.1
X122.18Y-99.28
X122.2Y-97.5
X122.7Y-85.2
X123.5Y-130.4
X124.375Y-111.075
X124.6Y-74.225
X125.9Y-109.4
X125.9Y-120.0
X125.92Y-104.45
X126.15Y-95.875
X126.4Y-116.3
X126.5Y-113.0
X126.675Y-86.475
X127.6Y-109.33
X128.6Y-121.2
X129.28Y-109.57
X129.812Y-80.312
X129.9Y-125.8
X130.275Y-106.475
X131.0Y-108.0
X132.4Y-129.1
X132.9Y-133.6
X132.985Y-106.215
X133.0Y-63.3
X133.225Y-96.25
X134.1Y-86.4
X134.7Y-121.55
X134.85Y-118.825
X136.1Y-96.3
X137.5Y-90.8
X138.0Y-82.1
X138.1Y-101.0
X138.5Y-103.6
X140.35Y-101.75
X140.4Y-115.7
X141.7Y-104.7
X141.975Y-113.225
X143.1Y-123.3
X143.975Y-82.225
X144.15Y-76.975
X144.4Y-90.5
X144.85Y-141.025
X145.3Y-120.1
X146.45Y-134.025
X146.575Y-87.65
X146.975Y-107.325
X147.0Y-110.85
X149.0Y-114.0
X149.1Y-86.4
X149.28Y-93.62
X149.31Y-96.665
X150.0Y-84.1
X151.8Y-116.0
X152.3Y-72.3
T3
X109.02Y-136.4
X109.88Y-69.0
X111.56Y-136.4
X112.42Y-69.0
X114.1Y-136.4
X114.96Y-69.0
X116.64Y-136.4
X117.5Y-69.0
X119.18Y-136.4
X120.04Y-69.0
X121.72Y-136.4
X121.8Y-63.375
X122.1Y-54.2
X122.58Y-69.0
X124.26Y-136.4
X124.34Y-63.375
X124.64Y-54.2
X125.12Y-69.0
X126.8Y-136.4
X126.88Y-63.375
X127.18Y-54.2
X127.66Y-69.0
X129.34Y-136.4
X129.42Y-63.375
X129.72Y-54.2
X130.2Y-69.0
X131.88Y-136.4
X134.42Y-136.4
X136.96Y-136.4
X139.5Y-136.4
X142.04Y-136.4
X152.0Y-138.16
X152.0Y-140.7
X152.0Y-143.24
X152.5Y-86.5
X152.5Y-89.04
X152.5Y-91.58
X152.5Y-94.12
X152.5Y-96.66
X152.5Y-99.2
X152.625Y-76.5
X152.625Y-79.04
X152.625Y-81.58
X154.54Y-138.16
X154.54Y-140.7
X154.54Y-143.24
X154.6Y-120.36
X154.6Y-122.9
X154.6Y-125.44
X154.6Y-127.98
T4
X101.25Y-62.75
X101.25Y-69.25
X105.75Y-62.75
X105.75Y-69.25
X149.95Y-53.35
X149.95Y-59.85
X149.95Y-63.35
X149.95Y-69.85
X154.45Y-53.35
X154.45Y-59.85
X154.45Y-63.35
X154.45Y-69.85
T5
X151.895Y-106.61
X151.895Y-112.39
T2
X150.845Y-105.18G85X151.945Y-105.18
G05
X150.845Y-113.82G85X151.945Y-113.82
G05
X155.275Y-105.18G85X155.875Y-105.18
G05
X155.275Y-113.82G85X155.875Y-113.82
G05
M30
