%TF.GenerationSoftware,KiCad,Pcbnew,8.0.9-8.0.9-0~ubuntu22.04.1*%
%TF.CreationDate,2026-09-23T08:24:23+00:00*%
%TF.ProjectId,Cyclometer_v1,4379636c-6f6d-4657-9465-725f76312e6b,rev?*%
%TF.SameCoordinates,Original*%
%TF.FileFunction,Paste,Top*%
%TF.FilePolarity,Positive*%
%FSLAX46Y46*%
G04 Gerber Fmt 4.6, Leading zero omitted, Abs format (unit mm)*
G04 Created by KiCad (PCBNEW 8.0.9-8.0.9-0~ubuntu22.04.1) date 2026-09-23 08:24:23*
%MOMM*%
%LPD*%
G01*
G04 APERTURE LIST*
G04 Aperture macros list*
%AMRoundRect*
0 Rectangle with rounded corners*
0 $1 Rounding radius*
0 $2 $3 $4 $5 $6 $7 $8 $9 X,Y pos of 4 corners*
0 Add a 4 corners polygon primitive as box body*
4,1,4,$2,$3,$4,$5,$6,$7,$8,$9,$2,$3,0*
0 Add four circle primitives for the rounded corners*
1,1,$1+$1,$2,$3*
1,1,$1+$1,$4,$5*
1,1,$1+$1,$6,$7*
1,1,$1+$1,$8,$9*
0 Add four rect primitives between the rounded corners*
20,1,$1+$1,$2,$3,$4,$5,0*
20,1,$1+$1,$4,$5,$6,$7,0*
20,1,$1+$1,$6,$7,$8,$9,0*
20,1,$1+$1,$8,$9,$2,$3,0*%
G04 Aperture macros list end*
%ADD10R,1.500000X2.600000*%
%ADD11RoundRect,0.250000X0.070711X-0.565685X0.565685X-0.070711X-0.070711X0.565685X-0.565685X0.070711X0*%
%ADD12RoundRect,0.250000X-0.097227X0.574524X-0.574524X0.097227X0.097227X-0.574524X0.574524X-0.097227X0*%
%ADD13RoundRect,0.250000X0.350000X0.450000X-0.350000X0.450000X-0.350000X-0.450000X0.350000X-0.450000X0*%
%ADD14RoundRect,0.250000X0.450000X-0.350000X0.450000X0.350000X-0.450000X0.350000X-0.450000X-0.350000X0*%
%ADD15RoundRect,0.250000X0.475000X-0.337500X0.475000X0.337500X-0.475000X0.337500X-0.475000X-0.337500X0*%
%ADD16RoundRect,0.250000X-0.475000X0.337500X-0.475000X-0.337500X0.475000X-0.337500X0.475000X0.337500X0*%
%ADD17RoundRect,0.250000X-0.450000X0.350000X-0.450000X-0.350000X0.450000X-0.350000X0.450000X0.350000X0*%
%ADD18RoundRect,0.250000X-0.325000X-0.450000X0.325000X-0.450000X0.325000X0.450000X-0.325000X0.450000X0*%
%ADD19RoundRect,0.075000X-0.548008X0.441942X0.441942X-0.548008X0.548008X-0.441942X-0.441942X0.548008X0*%
%ADD20RoundRect,0.075000X-0.548008X-0.441942X-0.441942X-0.548008X0.548008X0.441942X0.441942X0.548008X0*%
%ADD21RoundRect,0.250000X0.337500X0.475000X-0.337500X0.475000X-0.337500X-0.475000X0.337500X-0.475000X0*%
%ADD22R,2.600000X1.500000*%
%ADD23RoundRect,0.250000X-0.337500X-0.475000X0.337500X-0.475000X0.337500X0.475000X-0.337500X0.475000X0*%
%ADD24R,1.150000X0.300000*%
%ADD25RoundRect,0.250000X-0.350000X-0.450000X0.350000X-0.450000X0.350000X0.450000X-0.350000X0.450000X0*%
%ADD26R,2.000000X2.400000*%
%ADD27RoundRect,0.250000X0.574524X0.097227X0.097227X0.574524X-0.574524X-0.097227X-0.097227X-0.574524X0*%
%ADD28RoundRect,0.250000X0.097227X-0.574524X0.574524X-0.097227X-0.097227X0.574524X-0.574524X0.097227X0*%
%ADD29RoundRect,0.075000X-0.350000X-0.075000X0.350000X-0.075000X0.350000X0.075000X-0.350000X0.075000X0*%
%ADD30RoundRect,0.075000X0.075000X-0.350000X0.075000X0.350000X-0.075000X0.350000X-0.075000X-0.350000X0*%
%ADD31RoundRect,0.150000X-0.675000X-0.150000X0.675000X-0.150000X0.675000X0.150000X-0.675000X0.150000X0*%
%ADD32RoundRect,0.237500X0.237500X-0.300000X0.237500X0.300000X-0.237500X0.300000X-0.237500X-0.300000X0*%
%ADD33RoundRect,0.250000X-0.565685X-0.070711X-0.070711X-0.565685X0.565685X0.070711X0.070711X0.565685X0*%
%ADD34RoundRect,0.250000X-0.574524X-0.097227X-0.097227X-0.574524X0.574524X0.097227X0.097227X0.574524X0*%
%ADD35RoundRect,0.150000X-0.512500X-0.150000X0.512500X-0.150000X0.512500X0.150000X-0.512500X0.150000X0*%
%ADD36RoundRect,0.150000X-0.825000X-0.150000X0.825000X-0.150000X0.825000X0.150000X-0.825000X0.150000X0*%
G04 APERTURE END LIST*
D10*
%TO.C,D13*%
X137800000Y-142500000D03*
X134800000Y-142500000D03*
%TD*%
D11*
%TO.C,R15*%
X133192893Y-92807107D03*
X134607107Y-91392893D03*
%TD*%
D12*
%TO.C,C8*%
X109233623Y-90966377D03*
X107766377Y-92433623D03*
%TD*%
%TO.C,C4*%
X123333623Y-112766377D03*
X121866377Y-114233623D03*
%TD*%
D13*
%TO.C,R21*%
X144000000Y-142500000D03*
X142000000Y-142500000D03*
%TD*%
D10*
%TO.C,D14*%
X113500000Y-142500000D03*
X116500000Y-142500000D03*
%TD*%
D14*
%TO.C,R28*%
X144862500Y-107600000D03*
X144862500Y-105600000D03*
%TD*%
%TO.C,R30*%
X148400000Y-134000000D03*
X148400000Y-132000000D03*
%TD*%
D15*
%TO.C,C21*%
X140550000Y-121557500D03*
X140550000Y-119482500D03*
%TD*%
D12*
%TO.C,C9*%
X119496123Y-109066377D03*
X118028877Y-110533623D03*
%TD*%
D16*
%TO.C,C14*%
X113800000Y-120662500D03*
X113800000Y-122737500D03*
%TD*%
D17*
%TO.C,R4*%
X101500000Y-92000000D03*
X101500000Y-94000000D03*
%TD*%
D18*
%TO.C,D2*%
X153375000Y-116400000D03*
X155425000Y-116400000D03*
%TD*%
D19*
%TO.C,U1*%
X123888819Y-93335519D03*
X123535266Y-93689072D03*
X123181713Y-94042625D03*
X122828159Y-94396179D03*
X122474606Y-94749732D03*
X122121052Y-95103286D03*
X121767499Y-95456839D03*
X121413946Y-95810392D03*
X121060392Y-96163946D03*
X120706839Y-96517499D03*
X120353286Y-96871052D03*
X119999732Y-97224606D03*
X119646179Y-97578159D03*
X119292625Y-97931713D03*
X118939072Y-98285266D03*
X118585519Y-98638819D03*
D20*
X118585519Y-101361181D03*
X118939072Y-101714734D03*
X119292625Y-102068287D03*
X119646179Y-102421841D03*
X119999732Y-102775394D03*
X120353286Y-103128948D03*
X120706839Y-103482501D03*
X121060392Y-103836054D03*
X121413946Y-104189608D03*
X121767499Y-104543161D03*
X122121052Y-104896714D03*
X122474606Y-105250268D03*
X122828159Y-105603821D03*
X123181713Y-105957375D03*
X123535266Y-106310928D03*
X123888819Y-106664481D03*
D19*
X126611181Y-106664481D03*
X126964734Y-106310928D03*
X127318287Y-105957375D03*
X127671841Y-105603821D03*
X128025394Y-105250268D03*
X128378948Y-104896714D03*
X128732501Y-104543161D03*
X129086054Y-104189608D03*
X129439608Y-103836054D03*
X129793161Y-103482501D03*
X130146714Y-103128948D03*
X130500268Y-102775394D03*
X130853821Y-102421841D03*
X131207375Y-102068287D03*
X131560928Y-101714734D03*
X131914481Y-101361181D03*
D20*
X131914481Y-98638819D03*
X131560928Y-98285266D03*
X131207375Y-97931713D03*
X130853821Y-97578159D03*
X130500268Y-97224606D03*
X130146714Y-96871052D03*
X129793161Y-96517499D03*
X129439608Y-96163946D03*
X129086054Y-95810392D03*
X128732501Y-95456839D03*
X128378948Y-95103286D03*
X128025394Y-94749732D03*
X127671841Y-94396179D03*
X127318287Y-94042625D03*
X126964734Y-93689072D03*
X126611181Y-93335519D03*
%TD*%
D21*
%TO.C,C15*%
X120937500Y-125900000D03*
X118862500Y-125900000D03*
%TD*%
D22*
%TO.C,D12*%
X149000000Y-120500000D03*
X149000000Y-117500000D03*
%TD*%
D23*
%TO.C,C19*%
X142862500Y-117600000D03*
X144937500Y-117600000D03*
%TD*%
D10*
%TO.C,D17*%
X137800000Y-56500000D03*
X134800000Y-56500000D03*
%TD*%
D17*
%TO.C,R29*%
X144862500Y-110400000D03*
X144862500Y-112400000D03*
%TD*%
%TO.C,R8*%
X149000000Y-73000000D03*
X149000000Y-75000000D03*
%TD*%
D22*
%TO.C,D10*%
X149000000Y-79000000D03*
X149000000Y-82000000D03*
%TD*%
%TO.C,D11*%
X149000000Y-98500000D03*
X149000000Y-101500000D03*
%TD*%
D23*
%TO.C,C24*%
X151162500Y-131400000D03*
X153237500Y-131400000D03*
%TD*%
D24*
%TO.C,J8*%
X150830000Y-112850000D03*
X150830000Y-112050000D03*
X150830000Y-110750000D03*
X150830000Y-109750000D03*
X150830000Y-109250000D03*
X150830000Y-108250000D03*
X150830000Y-106950000D03*
X150830000Y-106150000D03*
X150830000Y-106450000D03*
X150830000Y-107250000D03*
X150830000Y-107750000D03*
X150830000Y-108750000D03*
X150830000Y-110250000D03*
X150830000Y-111250000D03*
X150830000Y-111750000D03*
X150830000Y-112550000D03*
%TD*%
D25*
%TO.C,R22*%
X106800000Y-142500000D03*
X108800000Y-142500000D03*
%TD*%
D15*
%TO.C,C17*%
X124700000Y-120837500D03*
X124700000Y-118762500D03*
%TD*%
D22*
%TO.C,D1*%
X101500000Y-98400000D03*
X101500000Y-101400000D03*
%TD*%
D11*
%TO.C,R16*%
X131192893Y-90807107D03*
X132607107Y-89392893D03*
%TD*%
D26*
%TO.C,Y1*%
X124950000Y-81400000D03*
X121250000Y-81400000D03*
%TD*%
D13*
%TO.C,R6*%
X137500000Y-115510000D03*
X135500000Y-115510000D03*
%TD*%
D25*
%TO.C,R27*%
X142900000Y-103400000D03*
X144900000Y-103400000D03*
%TD*%
D27*
%TO.C,C7*%
X110667246Y-98367246D03*
X109200000Y-96900000D03*
%TD*%
D28*
%TO.C,C1*%
X127866377Y-87933623D03*
X129333623Y-86466377D03*
%TD*%
D13*
%TO.C,Ra2*%
X136500000Y-132177500D03*
X134500000Y-132177500D03*
%TD*%
D27*
%TO.C,C6*%
X112833623Y-96133623D03*
X111366377Y-94666377D03*
%TD*%
D15*
%TO.C,C16*%
X124600000Y-125837500D03*
X124600000Y-123762500D03*
%TD*%
D29*
%TO.C,U2*%
X117100000Y-119500000D03*
X117100000Y-120000000D03*
X117100000Y-120500000D03*
X117100000Y-121000000D03*
X117100000Y-121500000D03*
X117100000Y-122000000D03*
D30*
X117800000Y-122700000D03*
X118300000Y-122700000D03*
X118800000Y-122700000D03*
X119300000Y-122700000D03*
X119800000Y-122700000D03*
X120300000Y-122700000D03*
D29*
X121000000Y-122000000D03*
X121000000Y-121500000D03*
X121000000Y-121000000D03*
X121000000Y-120500000D03*
X121000000Y-120000000D03*
X121000000Y-119500000D03*
D30*
X120300000Y-118800000D03*
X119800000Y-118800000D03*
X119300000Y-118800000D03*
X118800000Y-118800000D03*
X118300000Y-118800000D03*
X117800000Y-118800000D03*
%TD*%
D21*
%TO.C,C22*%
X144837500Y-100700000D03*
X142762500Y-100700000D03*
%TD*%
%TO.C,C11*%
X120137500Y-76700000D03*
X118062500Y-76700000D03*
%TD*%
D31*
%TO.C,U4*%
X131500000Y-118710000D03*
X131500000Y-119980000D03*
X131500000Y-121250000D03*
X131500000Y-122520000D03*
X136750000Y-122520000D03*
X136750000Y-121250000D03*
X136750000Y-119980000D03*
X136750000Y-118710000D03*
%TD*%
D23*
%TO.C,C33*%
X134462500Y-125777500D03*
X136537500Y-125777500D03*
%TD*%
D13*
%TO.C,R25*%
X144900000Y-56300000D03*
X142900000Y-56300000D03*
%TD*%
D17*
%TO.C,R19*%
X149000000Y-90200000D03*
X149000000Y-92200000D03*
%TD*%
D13*
%TO.C,Rp2*%
X132300000Y-115510000D03*
X130300000Y-115510000D03*
%TD*%
D22*
%TO.C,D15*%
X101500000Y-79100000D03*
X101500000Y-82100000D03*
%TD*%
D32*
%TO.C,C20*%
X144300000Y-85787500D03*
X144300000Y-84062500D03*
%TD*%
D33*
%TO.C,R13*%
X130692893Y-110992893D03*
X132107107Y-112407107D03*
%TD*%
D14*
%TO.C,R20*%
X149000000Y-125500000D03*
X149000000Y-123500000D03*
%TD*%
D25*
%TO.C,R26*%
X142900000Y-114475000D03*
X144900000Y-114475000D03*
%TD*%
D21*
%TO.C,C23*%
X153237500Y-134100000D03*
X151162500Y-134100000D03*
%TD*%
D22*
%TO.C,D4*%
X101500000Y-117700000D03*
X101500000Y-120700000D03*
%TD*%
D34*
%TO.C,C18*%
X120866377Y-87766377D03*
X122333623Y-89233623D03*
%TD*%
D17*
%TO.C,R23*%
X101500000Y-73300000D03*
X101500000Y-75300000D03*
%TD*%
D21*
%TO.C,C10*%
X125337500Y-76800000D03*
X123262500Y-76800000D03*
%TD*%
D33*
%TO.C,R14*%
X133292893Y-108592893D03*
X134707107Y-110007107D03*
%TD*%
D15*
%TO.C,C32*%
X129250000Y-129765000D03*
X129250000Y-127690000D03*
%TD*%
D25*
%TO.C,R12*%
X101175000Y-56675000D03*
X103175000Y-56675000D03*
%TD*%
D12*
%TO.C,C3*%
X121333623Y-110866377D03*
X119866377Y-112333623D03*
%TD*%
D17*
%TO.C,Ra1*%
X139500000Y-127977500D03*
X139500000Y-129977500D03*
%TD*%
D25*
%TO.C,R24*%
X106600000Y-56600000D03*
X108600000Y-56600000D03*
%TD*%
D35*
%TO.C,U12*%
X134425000Y-127965000D03*
X134425000Y-128915000D03*
X134425000Y-129865000D03*
X136700000Y-129865000D03*
X136700000Y-127965000D03*
%TD*%
D17*
%TO.C,R2*%
X117500000Y-80300000D03*
X117500000Y-82300000D03*
%TD*%
D34*
%TO.C,C2*%
X135666377Y-103266377D03*
X137133623Y-104733623D03*
%TD*%
D36*
%TO.C,U3*%
X136125000Y-84095000D03*
X136125000Y-85365000D03*
X136125000Y-86635000D03*
X136125000Y-87905000D03*
X141075000Y-87905000D03*
X141075000Y-86635000D03*
X141075000Y-85365000D03*
X141075000Y-84095000D03*
%TD*%
D10*
%TO.C,D16*%
X113400000Y-56400000D03*
X116400000Y-56400000D03*
%TD*%
D27*
%TO.C,C5*%
X114933623Y-94033623D03*
X113466377Y-92566377D03*
%TD*%
D13*
%TO.C,R1*%
X143700000Y-79500000D03*
X141700000Y-79500000D03*
%TD*%
D17*
%TO.C,R5*%
X101500000Y-110700000D03*
X101500000Y-112700000D03*
%TD*%
M02*
