%TF.GenerationSoftware,KiCad,Pcbnew,8.0.9-8.0.9-0~ubuntu22.04.1*%
%TF.CreationDate,2026-09-23T08:24:23+00:00*%
%TF.ProjectId,Cyclometer_v1,4379636c-6f6d-4657-9465-725f76312e6b,rev?*%
%TF.SameCoordinates,Original*%
%TF.FileFunction,AssemblyDrawing,Top*%
%FSLAX46Y46*%
G04 Gerber Fmt 4.6, Leading zero omitted, Abs format (unit mm)*
G04 Created by KiCad (PCBNEW 8.0.9-8.0.9-0~ubuntu22.04.1) date 2026-09-23 08:24:23*
%MOMM*%
%LPD*%
G01*
G04 APERTURE LIST*
%ADD10C,0.100000*%
%ADD11C,0.150000*%
G04 APERTURE END LIST*
D10*
%TO.C,D13*%
X138000000Y-144000000D02*
X138000000Y-141000000D01*
X138000000Y-143100000D02*
X137100000Y-144000000D01*
X138000000Y-141000000D02*
X134600000Y-141000000D01*
X134600000Y-144000000D02*
X138000000Y-144000000D01*
X134600000Y-141000000D02*
X134600000Y-144000000D01*
X137550000Y-142500000D02*
G75*
G02*
X135050000Y-142500000I-1250000J0D01*
G01*
X135050000Y-142500000D02*
G75*
G02*
X137550000Y-142500000I1250000J0D01*
G01*
%TO.C,R15*%
X132750951Y-92365165D02*
X134165165Y-90950951D01*
X133634835Y-93249049D02*
X132750951Y-92365165D01*
X134165165Y-90950951D02*
X135049049Y-91834835D01*
X135049049Y-91834835D02*
X133634835Y-93249049D01*
%TO.C,C8*%
X109649049Y-91434835D02*
X108234835Y-92849049D01*
X108765165Y-90550951D02*
X109649049Y-91434835D01*
X108234835Y-92849049D02*
X107350951Y-91965165D01*
X107350951Y-91965165D02*
X108765165Y-90550951D01*
%TO.C,C4*%
X123749049Y-113234835D02*
X122334835Y-114649049D01*
X122865165Y-112350951D02*
X123749049Y-113234835D01*
X122334835Y-114649049D02*
X121450951Y-113765165D01*
X121450951Y-113765165D02*
X122865165Y-112350951D01*
%TO.C,R21*%
X144000000Y-143125000D02*
X142000000Y-143125000D01*
X144000000Y-141875000D02*
X144000000Y-143125000D01*
X142000000Y-143125000D02*
X142000000Y-141875000D01*
X142000000Y-141875000D02*
X144000000Y-141875000D01*
%TO.C,D14*%
X113300000Y-141000000D02*
X113300000Y-144000000D01*
X113300000Y-141900000D02*
X114200000Y-141000000D01*
X113300000Y-144000000D02*
X116700000Y-144000000D01*
X116700000Y-141000000D02*
X113300000Y-141000000D01*
X116700000Y-144000000D02*
X116700000Y-141000000D01*
X116250000Y-142500000D02*
G75*
G02*
X113750000Y-142500000I-1250000J0D01*
G01*
X113750000Y-142500000D02*
G75*
G02*
X116250000Y-142500000I1250000J0D01*
G01*
%TO.C,R28*%
X144237500Y-107600000D02*
X144237500Y-105600000D01*
X145487500Y-107600000D02*
X144237500Y-107600000D01*
X144237500Y-105600000D02*
X145487500Y-105600000D01*
X145487500Y-105600000D02*
X145487500Y-107600000D01*
%TO.C,J5*%
X120530000Y-64645000D02*
X120530000Y-62740000D01*
X130690000Y-64645000D02*
X120530000Y-64645000D01*
X120530000Y-62740000D02*
X121165000Y-62105000D01*
X121165000Y-62105000D02*
X130690000Y-62105000D01*
X130690000Y-62105000D02*
X130690000Y-64645000D01*
%TO.C,R30*%
X147775000Y-134000000D02*
X147775000Y-132000000D01*
X149025000Y-134000000D02*
X147775000Y-134000000D01*
X147775000Y-132000000D02*
X149025000Y-132000000D01*
X149025000Y-132000000D02*
X149025000Y-134000000D01*
%TO.C,C21*%
X139925000Y-121520000D02*
X139925000Y-119520000D01*
X141175000Y-121520000D02*
X139925000Y-121520000D01*
X139925000Y-119520000D02*
X141175000Y-119520000D01*
X141175000Y-119520000D02*
X141175000Y-121520000D01*
%TO.C,SW2*%
X149200000Y-59600000D02*
X149200000Y-56600000D01*
X155200000Y-59600000D02*
X149200000Y-59600000D01*
X149200000Y-56600000D02*
X149200000Y-53600000D01*
X149200000Y-53600000D02*
X155200000Y-53600000D01*
X155200000Y-53600000D02*
X155200000Y-59600000D01*
X154215564Y-56600000D02*
G75*
G02*
X150184436Y-56600000I-2015564J0D01*
G01*
X150184436Y-56600000D02*
G75*
G02*
X154215564Y-56600000I2015564J0D01*
G01*
%TO.C,C9*%
X119911549Y-109534835D02*
X118497335Y-110949049D01*
X119027665Y-108650951D02*
X119911549Y-109534835D01*
X118497335Y-110949049D02*
X117613451Y-110065165D01*
X117613451Y-110065165D02*
X119027665Y-108650951D01*
%TO.C,C14*%
X114425000Y-120700000D02*
X114425000Y-122700000D01*
X113175000Y-120700000D02*
X114425000Y-120700000D01*
X114425000Y-122700000D02*
X113175000Y-122700000D01*
X113175000Y-122700000D02*
X113175000Y-120700000D01*
%TO.C,R4*%
X102125000Y-92000000D02*
X102125000Y-94000000D01*
X100875000Y-92000000D02*
X102125000Y-92000000D01*
X102125000Y-94000000D02*
X100875000Y-94000000D01*
X100875000Y-94000000D02*
X100875000Y-92000000D01*
%TO.C,D2*%
X153400000Y-116100000D02*
X153400000Y-117000000D01*
X153400000Y-117000000D02*
X155400000Y-117000000D01*
X153700000Y-115800000D02*
X153400000Y-116100000D01*
X155400000Y-115800000D02*
X153700000Y-115800000D01*
X155400000Y-117000000D02*
X155400000Y-115800000D01*
%TO.C,U1*%
X124542893Y-93636039D02*
X125957107Y-93636039D01*
X118178932Y-100000000D02*
X124542893Y-93636039D01*
X125957107Y-93636039D02*
X132321068Y-100000000D01*
X132321068Y-100000000D02*
X125250000Y-107071068D01*
X125250000Y-107071068D02*
X118178932Y-100000000D01*
%TO.C,C15*%
X120900000Y-126525000D02*
X118900000Y-126525000D01*
X120900000Y-125275000D02*
X120900000Y-126525000D01*
X118900000Y-126525000D02*
X118900000Y-125275000D01*
X118900000Y-125275000D02*
X120900000Y-125275000D01*
%TO.C,D12*%
X147500000Y-120700000D02*
X150500000Y-120700000D01*
X148400000Y-120700000D02*
X147500000Y-119800000D01*
X150500000Y-120700000D02*
X150500000Y-117300000D01*
X147500000Y-117300000D02*
X147500000Y-120700000D01*
X150500000Y-117300000D02*
X147500000Y-117300000D01*
X150250000Y-119000000D02*
G75*
G02*
X147750000Y-119000000I-1250000J0D01*
G01*
X147750000Y-119000000D02*
G75*
G02*
X150250000Y-119000000I1250000J0D01*
G01*
%TO.C,C19*%
X142900000Y-116975000D02*
X144900000Y-116975000D01*
X142900000Y-118225000D02*
X142900000Y-116975000D01*
X144900000Y-116975000D02*
X144900000Y-118225000D01*
X144900000Y-118225000D02*
X142900000Y-118225000D01*
%TO.C,D17*%
X138000000Y-58000000D02*
X138000000Y-55000000D01*
X138000000Y-57100000D02*
X137100000Y-58000000D01*
X138000000Y-55000000D02*
X134600000Y-55000000D01*
X134600000Y-58000000D02*
X138000000Y-58000000D01*
X134600000Y-55000000D02*
X134600000Y-58000000D01*
X137550000Y-56500000D02*
G75*
G02*
X135050000Y-56500000I-1250000J0D01*
G01*
X135050000Y-56500000D02*
G75*
G02*
X137550000Y-56500000I1250000J0D01*
G01*
%TO.C,SW1*%
X149200000Y-69600000D02*
X149200000Y-66600000D01*
X155200000Y-69600000D02*
X149200000Y-69600000D01*
X149200000Y-66600000D02*
X149200000Y-63600000D01*
X149200000Y-63600000D02*
X155200000Y-63600000D01*
X155200000Y-63600000D02*
X155200000Y-69600000D01*
X154215564Y-66600000D02*
G75*
G02*
X150184436Y-66600000I-2015564J0D01*
G01*
X150184436Y-66600000D02*
G75*
G02*
X154215564Y-66600000I2015564J0D01*
G01*
%TO.C,R29*%
X145487500Y-110400000D02*
X145487500Y-112400000D01*
X144237500Y-110400000D02*
X145487500Y-110400000D01*
X145487500Y-112400000D02*
X144237500Y-112400000D01*
X144237500Y-112400000D02*
X144237500Y-110400000D01*
%TO.C,R8*%
X149625000Y-73000000D02*
X149625000Y-75000000D01*
X148375000Y-73000000D02*
X149625000Y-73000000D01*
X149625000Y-75000000D02*
X148375000Y-75000000D01*
X148375000Y-75000000D02*
X148375000Y-73000000D01*
%TO.C,D10*%
X150500000Y-78800000D02*
X147500000Y-78800000D01*
X149600000Y-78800000D02*
X150500000Y-79700000D01*
X147500000Y-78800000D02*
X147500000Y-82200000D01*
X150500000Y-82200000D02*
X150500000Y-78800000D01*
X147500000Y-82200000D02*
X150500000Y-82200000D01*
X150250000Y-80500000D02*
G75*
G02*
X147750000Y-80500000I-1250000J0D01*
G01*
X147750000Y-80500000D02*
G75*
G02*
X150250000Y-80500000I1250000J0D01*
G01*
%TO.C,D11*%
X150500000Y-98300000D02*
X147500000Y-98300000D01*
X149600000Y-98300000D02*
X150500000Y-99200000D01*
X147500000Y-98300000D02*
X147500000Y-101700000D01*
X150500000Y-101700000D02*
X150500000Y-98300000D01*
X147500000Y-101700000D02*
X150500000Y-101700000D01*
X150250000Y-100000000D02*
G75*
G02*
X147750000Y-100000000I-1250000J0D01*
G01*
X147750000Y-100000000D02*
G75*
G02*
X150250000Y-100000000I1250000J0D01*
G01*
%TO.C,C24*%
X151200000Y-130775000D02*
X153200000Y-130775000D01*
X151200000Y-132025000D02*
X151200000Y-130775000D01*
X153200000Y-130775000D02*
X153200000Y-132025000D01*
X153200000Y-132025000D02*
X151200000Y-132025000D01*
%TO.C,J8*%
X150825000Y-113970000D02*
X158175000Y-113970000D01*
X150825000Y-113970000D02*
X150825000Y-105030000D01*
X158175000Y-113970000D02*
X158175000Y-105030000D01*
X158175000Y-105030000D02*
X150825000Y-105030000D01*
%TO.C,R22*%
X106800000Y-141875000D02*
X108800000Y-141875000D01*
X106800000Y-143125000D02*
X106800000Y-141875000D01*
X108800000Y-141875000D02*
X108800000Y-143125000D01*
X108800000Y-143125000D02*
X106800000Y-143125000D01*
%TO.C,C17*%
X124075000Y-120800000D02*
X124075000Y-118800000D01*
X125325000Y-120800000D02*
X124075000Y-120800000D01*
X124075000Y-118800000D02*
X125325000Y-118800000D01*
X125325000Y-118800000D02*
X125325000Y-120800000D01*
%TO.C,D1*%
X103000000Y-98200000D02*
X100000000Y-98200000D01*
X102100000Y-98200000D02*
X103000000Y-99100000D01*
X100000000Y-98200000D02*
X100000000Y-101600000D01*
X103000000Y-101600000D02*
X103000000Y-98200000D01*
X100000000Y-101600000D02*
X103000000Y-101600000D01*
X102750000Y-99900000D02*
G75*
G02*
X100250000Y-99900000I-1250000J0D01*
G01*
X100250000Y-99900000D02*
G75*
G02*
X102750000Y-99900000I1250000J0D01*
G01*
%TO.C,R16*%
X130750951Y-90365165D02*
X132165165Y-88950951D01*
X131634835Y-91249049D02*
X130750951Y-90365165D01*
X132165165Y-88950951D02*
X133049049Y-89834835D01*
X133049049Y-89834835D02*
X131634835Y-91249049D01*
%TO.C,Y1*%
X125600000Y-82800000D02*
X125400000Y-83000000D01*
X125600000Y-80800000D02*
X124600000Y-79800000D01*
X125600000Y-80000000D02*
X125600000Y-82800000D01*
X125400000Y-83000000D02*
X120800000Y-83000000D01*
X125400000Y-79800000D02*
X125600000Y-80000000D01*
X120800000Y-83000000D02*
X120600000Y-82800000D01*
X120800000Y-79800000D02*
X125400000Y-79800000D01*
X120600000Y-82800000D02*
X120600000Y-80000000D01*
X120600000Y-80000000D02*
X120800000Y-79800000D01*
%TO.C,R6*%
X137500000Y-116135000D02*
X135500000Y-116135000D01*
X137500000Y-114885000D02*
X137500000Y-116135000D01*
X135500000Y-116135000D02*
X135500000Y-114885000D01*
X135500000Y-114885000D02*
X137500000Y-114885000D01*
%TO.C,R27*%
X142900000Y-102775000D02*
X144900000Y-102775000D01*
X142900000Y-104025000D02*
X142900000Y-102775000D01*
X144900000Y-102775000D02*
X144900000Y-104025000D01*
X144900000Y-104025000D02*
X142900000Y-104025000D01*
%TO.C,C7*%
X110198788Y-98782672D02*
X108784574Y-97368458D01*
X111082672Y-97898788D02*
X110198788Y-98782672D01*
X108784574Y-97368458D02*
X109668458Y-96484574D01*
X109668458Y-96484574D02*
X111082672Y-97898788D01*
%TO.C,C1*%
X127450951Y-87465165D02*
X128865165Y-86050951D01*
X128334835Y-88349049D02*
X127450951Y-87465165D01*
X128865165Y-86050951D02*
X129749049Y-86934835D01*
X129749049Y-86934835D02*
X128334835Y-88349049D01*
%TO.C,Ra2*%
X136500000Y-132802500D02*
X134500000Y-132802500D01*
X136500000Y-131552500D02*
X136500000Y-132802500D01*
X134500000Y-132802500D02*
X134500000Y-131552500D01*
X134500000Y-131552500D02*
X136500000Y-131552500D01*
%TO.C,C6*%
X112365165Y-96549049D02*
X110950951Y-95134835D01*
X113249049Y-95665165D02*
X112365165Y-96549049D01*
X110950951Y-95134835D02*
X111834835Y-94250951D01*
X111834835Y-94250951D02*
X113249049Y-95665165D01*
%TO.C,C16*%
X123975000Y-125800000D02*
X123975000Y-123800000D01*
X125225000Y-125800000D02*
X123975000Y-125800000D01*
X123975000Y-123800000D02*
X125225000Y-123800000D01*
X125225000Y-123800000D02*
X125225000Y-125800000D01*
D11*
%TO.C,U2*%
X117050000Y-119750000D02*
X118050000Y-118750000D01*
X117050000Y-122750000D02*
X117050000Y-119750000D01*
X118050000Y-118750000D02*
X121050000Y-118750000D01*
X121050000Y-118750000D02*
X121050000Y-122750000D01*
X121050000Y-122750000D02*
X117050000Y-122750000D01*
D10*
%TO.C,C22*%
X144800000Y-101325000D02*
X142800000Y-101325000D01*
X144800000Y-100075000D02*
X144800000Y-101325000D01*
X142800000Y-101325000D02*
X142800000Y-100075000D01*
X142800000Y-100075000D02*
X144800000Y-100075000D01*
%TO.C,C11*%
X120100000Y-77325000D02*
X118100000Y-77325000D01*
X120100000Y-76075000D02*
X120100000Y-77325000D01*
X118100000Y-77325000D02*
X118100000Y-76075000D01*
X118100000Y-76075000D02*
X120100000Y-76075000D01*
%TO.C,U4*%
X132175000Y-119140000D02*
X133150000Y-118165000D01*
X132175000Y-123065000D02*
X132175000Y-119140000D01*
X133150000Y-118165000D02*
X136075000Y-118165000D01*
X136075000Y-118165000D02*
X136075000Y-123065000D01*
X136075000Y-123065000D02*
X132175000Y-123065000D01*
%TO.C,C33*%
X134500000Y-125152500D02*
X136500000Y-125152500D01*
X134500000Y-126402500D02*
X134500000Y-125152500D01*
X136500000Y-125152500D02*
X136500000Y-126402500D01*
X136500000Y-126402500D02*
X134500000Y-126402500D01*
%TO.C,J4*%
X143310000Y-135130000D02*
X143310000Y-137035000D01*
X107750000Y-135130000D02*
X143310000Y-135130000D01*
X143310000Y-137035000D02*
X142675000Y-137670000D01*
X142675000Y-137670000D02*
X107750000Y-137670000D01*
X107750000Y-137670000D02*
X107750000Y-135130000D01*
%TO.C,R25*%
X144900000Y-56925000D02*
X142900000Y-56925000D01*
X144900000Y-55675000D02*
X144900000Y-56925000D01*
X142900000Y-56925000D02*
X142900000Y-55675000D01*
X142900000Y-55675000D02*
X144900000Y-55675000D01*
%TO.C,R19*%
X149625000Y-90200000D02*
X149625000Y-92200000D01*
X148375000Y-90200000D02*
X149625000Y-90200000D01*
X149625000Y-92200000D02*
X148375000Y-92200000D01*
X148375000Y-92200000D02*
X148375000Y-90200000D01*
%TO.C,J6*%
X121465000Y-55470000D02*
X120830000Y-54835000D01*
X130990000Y-55470000D02*
X121465000Y-55470000D01*
X120830000Y-54835000D02*
X120830000Y-52930000D01*
X120830000Y-52930000D02*
X130990000Y-52930000D01*
X130990000Y-52930000D02*
X130990000Y-55470000D01*
%TO.C,Rp2*%
X132300000Y-116135000D02*
X130300000Y-116135000D01*
X132300000Y-114885000D02*
X132300000Y-116135000D01*
X130300000Y-116135000D02*
X130300000Y-114885000D01*
X130300000Y-114885000D02*
X132300000Y-114885000D01*
%TO.C,D15*%
X103000000Y-78900000D02*
X100000000Y-78900000D01*
X102100000Y-78900000D02*
X103000000Y-79800000D01*
X100000000Y-78900000D02*
X100000000Y-82300000D01*
X103000000Y-82300000D02*
X103000000Y-78900000D01*
X100000000Y-82300000D02*
X103000000Y-82300000D01*
X102750000Y-80600000D02*
G75*
G02*
X100250000Y-80600000I-1250000J0D01*
G01*
X100250000Y-80600000D02*
G75*
G02*
X102750000Y-80600000I1250000J0D01*
G01*
%TO.C,C20*%
X143900000Y-85725000D02*
X143900000Y-84125000D01*
X144700000Y-85725000D02*
X143900000Y-85725000D01*
X143900000Y-84125000D02*
X144700000Y-84125000D01*
X144700000Y-84125000D02*
X144700000Y-85725000D01*
%TO.C,R13*%
X131134835Y-110550951D02*
X132549049Y-111965165D01*
X130250951Y-111434835D02*
X131134835Y-110550951D01*
X132549049Y-111965165D02*
X131665165Y-112849049D01*
X131665165Y-112849049D02*
X130250951Y-111434835D01*
%TO.C,R20*%
X148375000Y-125500000D02*
X148375000Y-123500000D01*
X149625000Y-125500000D02*
X148375000Y-125500000D01*
X148375000Y-123500000D02*
X149625000Y-123500000D01*
X149625000Y-123500000D02*
X149625000Y-125500000D01*
%TO.C,R26*%
X142900000Y-113850000D02*
X144900000Y-113850000D01*
X142900000Y-115100000D02*
X142900000Y-113850000D01*
X144900000Y-113850000D02*
X144900000Y-115100000D01*
X144900000Y-115100000D02*
X142900000Y-115100000D01*
%TO.C,C23*%
X153200000Y-134725000D02*
X151200000Y-134725000D01*
X153200000Y-133475000D02*
X153200000Y-134725000D01*
X151200000Y-134725000D02*
X151200000Y-133475000D01*
X151200000Y-133475000D02*
X153200000Y-133475000D01*
%TO.C,D4*%
X103000000Y-117500000D02*
X100000000Y-117500000D01*
X102100000Y-117500000D02*
X103000000Y-118400000D01*
X100000000Y-117500000D02*
X100000000Y-120900000D01*
X103000000Y-120900000D02*
X103000000Y-117500000D01*
X100000000Y-120900000D02*
X103000000Y-120900000D01*
X102750000Y-119200000D02*
G75*
G02*
X100250000Y-119200000I-1250000J0D01*
G01*
X100250000Y-119200000D02*
G75*
G02*
X102750000Y-119200000I1250000J0D01*
G01*
%TO.C,C18*%
X121334835Y-87350951D02*
X122749049Y-88765165D01*
X120450951Y-88234835D02*
X121334835Y-87350951D01*
X122749049Y-88765165D02*
X121865165Y-89649049D01*
X121865165Y-89649049D02*
X120450951Y-88234835D01*
%TO.C,R23*%
X102125000Y-73300000D02*
X102125000Y-75300000D01*
X100875000Y-73300000D02*
X102125000Y-73300000D01*
X102125000Y-75300000D02*
X100875000Y-75300000D01*
X100875000Y-75300000D02*
X100875000Y-73300000D01*
%TO.C,C10*%
X125300000Y-77425000D02*
X123300000Y-77425000D01*
X125300000Y-76175000D02*
X125300000Y-77425000D01*
X123300000Y-77425000D02*
X123300000Y-76175000D01*
X123300000Y-76175000D02*
X125300000Y-76175000D01*
%TO.C,R14*%
X133734835Y-108150951D02*
X135149049Y-109565165D01*
X132850951Y-109034835D02*
X133734835Y-108150951D01*
X135149049Y-109565165D02*
X134265165Y-110449049D01*
X134265165Y-110449049D02*
X132850951Y-109034835D01*
%TO.C,C32*%
X128625000Y-129727500D02*
X128625000Y-127727500D01*
X129875000Y-129727500D02*
X128625000Y-129727500D01*
X128625000Y-127727500D02*
X129875000Y-127727500D01*
X129875000Y-127727500D02*
X129875000Y-129727500D01*
%TO.C,R12*%
X101175000Y-56050000D02*
X103175000Y-56050000D01*
X101175000Y-57300000D02*
X101175000Y-56050000D01*
X103175000Y-56050000D02*
X103175000Y-57300000D01*
X103175000Y-57300000D02*
X101175000Y-57300000D01*
%TO.C,C3*%
X121749049Y-111334835D02*
X120334835Y-112749049D01*
X120865165Y-110450951D02*
X121749049Y-111334835D01*
X120334835Y-112749049D02*
X119450951Y-111865165D01*
X119450951Y-111865165D02*
X120865165Y-110450951D01*
%TO.C,Ra1*%
X140125000Y-127977500D02*
X140125000Y-129977500D01*
X138875000Y-127977500D02*
X140125000Y-127977500D01*
X140125000Y-129977500D02*
X138875000Y-129977500D01*
X138875000Y-129977500D02*
X138875000Y-127977500D01*
%TO.C,R24*%
X106600000Y-55975000D02*
X108600000Y-55975000D01*
X106600000Y-57225000D02*
X106600000Y-55975000D01*
X108600000Y-55975000D02*
X108600000Y-57225000D01*
X108600000Y-57225000D02*
X106600000Y-57225000D01*
%TO.C,U12*%
X134762500Y-127865000D02*
X135162500Y-127465000D01*
X134762500Y-130365000D02*
X134762500Y-127865000D01*
X135162500Y-127465000D02*
X136362500Y-127465000D01*
X136362500Y-127465000D02*
X136362500Y-130365000D01*
X136362500Y-130365000D02*
X134762500Y-130365000D01*
%TO.C,R2*%
X118125000Y-80300000D02*
X118125000Y-82300000D01*
X116875000Y-80300000D02*
X118125000Y-80300000D01*
X118125000Y-82300000D02*
X116875000Y-82300000D01*
X116875000Y-82300000D02*
X116875000Y-80300000D01*
%TO.C,C2*%
X136134835Y-102850951D02*
X137549049Y-104265165D01*
X135250951Y-103734835D02*
X136134835Y-102850951D01*
X137549049Y-104265165D02*
X136665165Y-105149049D01*
X136665165Y-105149049D02*
X135250951Y-103734835D01*
%TO.C,U3*%
X136650000Y-84525000D02*
X137625000Y-83550000D01*
X136650000Y-88450000D02*
X136650000Y-84525000D01*
X137625000Y-83550000D02*
X140550000Y-83550000D01*
X140550000Y-83550000D02*
X140550000Y-88450000D01*
X140550000Y-88450000D02*
X136650000Y-88450000D01*
%TO.C,D16*%
X113200000Y-54900000D02*
X113200000Y-57900000D01*
X113200000Y-55800000D02*
X114100000Y-54900000D01*
X113200000Y-57900000D02*
X116600000Y-57900000D01*
X116600000Y-54900000D02*
X113200000Y-54900000D01*
X116600000Y-57900000D02*
X116600000Y-54900000D01*
X116150000Y-56400000D02*
G75*
G02*
X113650000Y-56400000I-1250000J0D01*
G01*
X113650000Y-56400000D02*
G75*
G02*
X116150000Y-56400000I1250000J0D01*
G01*
%TO.C,C5*%
X114465165Y-94449049D02*
X113050951Y-93034835D01*
X115349049Y-93565165D02*
X114465165Y-94449049D01*
X113050951Y-93034835D02*
X113934835Y-92150951D01*
X113934835Y-92150951D02*
X115349049Y-93565165D01*
%TO.C,R1*%
X143700000Y-80125000D02*
X141700000Y-80125000D01*
X143700000Y-78875000D02*
X143700000Y-80125000D01*
X141700000Y-80125000D02*
X141700000Y-78875000D01*
X141700000Y-78875000D02*
X143700000Y-78875000D01*
%TO.C,R5*%
X102125000Y-110700000D02*
X102125000Y-112700000D01*
X100875000Y-110700000D02*
X102125000Y-110700000D01*
X102125000Y-112700000D02*
X100875000Y-112700000D01*
X100875000Y-112700000D02*
X100875000Y-110700000D01*
%TD*%
M02*
